<?xml version="1.0" encoding="UTF-8"?>
<svg id="Layer_2" data-name="Layer 2" xmlns="http://www.w3.org/2000/svg" viewBox="0 0 42 31.54">
  <defs>
    <style>
      .cls-1 {
        fill: #0033a0;
      }
    </style>
  </defs>
  <path class="cls-1" d="M12.94.48v29.81h-5.25V8.8l-4.67,3.88L.06,8.93,10.1.48h2.83Z"/>
  <path class="cls-1" d="M36.52,3.41c-3.58,2.54-6.75,5.82-8.29,9.88,1.25-.65,2.46-.86,3.71-.86,4.42,0,8.33,3.28,8.33,8.8,0,5.13-3.71,9.45-9.29,9.45-6.04,0-9.71-4.53-9.71-10.96,0-7.25,3.88-13.8,11.38-19.24l3.88,2.93ZM30.94,25.89c2.71,0,4.21-1.98,4.21-4.57,0-2.89-1.88-4.49-4.5-4.49-1.79,0-4.25.95-4.25,3.88,0,3.67,2.58,5.18,4.54,5.18Z"/>
</svg>