<?xml version="1.0" encoding="UTF-8"?>
<svg xmlns="http://www.w3.org/2000/svg" width="270.988" height="42.276" viewBox="0 0 270.988 42.276">
<defs><style>.cls-1{fill:#0033a0;}</style></defs><rect class="cls-1" x="122.75" y=".27" width="1.46" height="41.39"/><rect class="cls-1" x="41.92" y=".36" width="3.89" height="27.09"/><path class="cls-1" d="m80.26,13.87c0-7.27-5.6-13.87-14.62-13.87s-14.5,6.8-14.5,13.98c0,7.55,5.8,13.83,14.3,13.83s14.82-6.16,14.82-13.95h0Zm-14.58,10.33c-5.68,0-10.53-4.05-10.53-10.21,0-4.53,3.06-10.33,10.64-10.33,7.07,0,10.49,5.68,10.49,10.17,0,2.34-.99,5.28-2.7,7.15-1.86,2.03-5,3.21-7.9,3.21h0Z"/><polygon class="cls-1" points="98.5 16.85 106.84 6.36 106.84 27.45 110.73 27.45 110.73 .36 107.12 .36 98.14 11.48 89.13 .36 85.47 .36 85.47 27.45 89.36 27.45 89.36 6.36 97.79 16.85 98.5 16.85"/><path class="cls-1" d="m6.89,37.73c0,.88-.08,1.36-.25,1.68-.24.44-.89,1.19-2.38,1.19-1.07,0-1.67-.36-2.07-.76-.48-.47-.58-.92-.58-2.12v-5.13H.28v5.13c0,.61,0,1.65.51,2.45.73,1.14,2.17,1.57,3.46,1.57,1.05,0,2.08-.26,2.9-.98,1.04-.91,1.04-2.18,1.04-3.04v-5.13h-1.31s0,5.13,0,5.13Z"/><polygon class="cls-1" points="18.98 39.6 12.76 32.6 11.69 32.6 11.69 41.63 12.94 41.63 12.94 34.68 19.1 41.63 20.23 41.63 20.23 32.6 18.98 32.6 18.98 39.6"/><polygon class="cls-1" points="32.95 36.31 29.88 32.6 28.64 32.6 28.64 41.63 29.96 41.63 29.96 34.6 32.82 38.1 33.07 38.1 35.9 34.6 35.9 41.63 37.23 41.63 37.23 32.6 36 32.6 32.95 36.31"/><rect class="cls-1" x="40.9" y="32.6" width="1.32" height="9.03"/><path class="cls-1" d="m50.41,38.33h1.77v1.88c-.87.28-1.34.4-2.01.4-2.23,0-3.7-1.5-3.7-3.5,0-2.13,1.74-3.49,3.58-3.49.51,0,1.76.08,3.27.94v-1.32c-.99-.41-1.94-.77-3.24-.77-3.16,0-4.98,2.33-4.98,4.71,0,2.05,1.48,4.55,5.04,4.55,1.54,0,2.67-.44,3.38-.74v-3.82h-3.09v1.14h-.02Z"/><path class="cls-1" d="m60.83,37.34c1-.39,1.54-1.18,1.54-2.22,0-.91-.46-1.82-1.45-2.22-.58-.25-1.15-.29-1.58-.29h-2.31v9.03h1.31v-3.93h.35c.63,0,1.08,0,1.98,1.14.3.39,1.58,2.36,1.89,2.8h1.56c-.63-.87-.86-1.18-1.25-1.8-.7-1.11-1.21-1.94-2.05-2.49h0Zm-.69-.93c-.37.14-1.08.14-1.28.14h-.51v-2.85h.41c.8,0,1.23.05,1.56.21.44.19.7.69.7,1.2s-.25,1.06-.87,1.3h0Z"/><path class="cls-1" d="m69.53,32.55l-3.96,9.08h1.35l1.17-2.66h3.91l1.23,2.66h1.35l-4.12-9.08s-.93,0-.93,0Zm-.93,5.25l1.38-3.27,1.49,3.27h-2.86Z"/><polygon class="cls-1" points="75.19 33.74 78.36 33.74 78.36 41.63 79.68 41.63 79.68 33.74 82.89 33.74 82.89 32.6 75.19 32.6 75.19 33.74"/><rect class="cls-1" x="85.8" y="32.6" width="1.32" height="9.03"/><path class="cls-1" d="m94.8,32.48c-3.15,0-4.93,2.26-4.93,4.66s1.97,4.6,4.87,4.6,5.04-2.05,5.04-4.64c0-2.42-1.9-4.62-4.97-4.62Zm2.7,6.99c-.63.68-1.7,1.07-2.69,1.07-1.93,0-3.58-1.35-3.58-3.4,0-1.51,1.04-3.44,3.62-3.44,2.41,0,3.56,1.89,3.56,3.39,0,.78-.34,1.76-.92,2.38h0Z"/><polygon class="cls-1" points="109.59 39.6 103.37 32.6 102.31 32.6 102.31 41.63 103.55 41.63 103.55 34.68 109.72 41.63 110.84 41.63 110.84 32.6 109.59 32.6 109.59 39.6"/><path class="cls-1" d="m14.22,11.35c.3,0,.55-.24.55-.55s-.24-.55-.55-.55-.55.24-.55.55.24.55.55.55Z"/><path class="cls-1" d="m12.26,14.69c.1,0,.18-.06.21-.15l.98-2.32.07,2.25-.37,2.86c0,.11.05.22.16.26.03,0,.06.02.09.02.12,0,.22-.09.23-.2l.35-2.72h.48l.35,2.72c.02.12.12.2.23.2.03,0,.06,0,.09-.02.11-.04.17-.16.16-.26l-.37-2.86.07-2.25.98,2.32h0s0,.03.02.04h0s0,.03.02.03h0l.03.03h0s.02.02.04.02h0s.02,0,.03,0h.24l-.32,1.61c-.02.12,0,.23.08.32.05.06.11.1.17.12v.68c0,.11.09.19.19.19s.19-.09.19-.19v-.66h.3v.66c0,.11.09.19.19.19s.19-.09.19-.19v-.68c.07-.02.13-.07.17-.12.08-.09.11-.2.08-.32l-.32-1.6h.24s.02,0,.03,0h0s.03-.02.04-.02h0s.02-.02.03-.03h0s0-.02.02-.03h0s0-.03.02-.05h0l1.02-2.4.2.98c.03.16.03.33-.02.49l-.93,4.01h2.89l-.93-4.01c-.04-.16-.05-.32,0-.49l.2-.98.79,1.93c.04.09.13.15.22.15.03,0,.06,0,.09-.02.12-.05.17-.18.13-.31l-.88-2.17c-.04-.09-.13-.15-.22-.15h-1.65c-.1,0-.18.06-.21.15l-1.06,2.49h-1.04l-1.06-2.49c-.04-.09-.13-.15-.21-.15h-1.69c-.1,0-.18.06-.21.15l-1.12,2.62c-.05.11,0,.24.09.3.04.03.09.04.13.04h.08Z"/><path class="cls-1" d="m19.48,11.35c.3,0,.55-.24.55-.55s-.24-.55-.55-.55-.55.24-.55.55.24.55.55.55Z"/><path class="cls-1" d="m16.86,14.1c.22,0,.42-.18.42-.42s-.18-.42-.42-.42-.42.18-.42.42.18.42.42.42Z"/><path class="cls-1" d="m33.44,13.11c0-4.3-1.97-9.12-5.19-12.7h-2.86c.75.69,1.79,1.89,1.79,1.89,2.76,3.09,4.37,7.23,4.37,10.92v.14h-4.58C26.27,6.13,20.51.41,13.52.41,6.05.41,0,6.84,0,14.76c0,4.3,1.97,9.12,5.19,12.7h2.86c-.75-.69-1.8-1.89-1.8-1.89-2.76-3.09-4.37-7.23-4.37-10.92v-.14h4.58c.7,7.23,6.46,12.95,13.45,12.95,7.47,0,13.52-6.43,13.52-14.35h0Zm-13.23,12.46v-3.39c1.92.09,3.66.86,4.93,2.08-1.49.8-3.17,1.26-4.93,1.31Zm0-4.1v-2.11h6.34c-.91,1.21-2.13,2.18-3.41,2.75-.9-.38-1.89-.6-2.93-.64Zm5.58,2.41c-.52-.51-1.12-.96-1.77-1.33,1.31-.71,2.52-1.83,3.43-3.19h2.55c-1.01,1.86-2.47,3.43-4.21,4.52Zm5.72-9.67c-.12,1.53-.5,2.99-1.09,4.32h-2.47c.64-1.2,1.03-2.56,1.03-3.96v-.36h2.52Zm-6.44-.84h-2.35v-.06c0-1.4-.39-2.75-1.03-3.96h2.32c.55,1.24.92,2.59,1.06,4.02Zm-1.48-4.87h-2.41c-.9-1.35-2.12-2.47-3.43-3.19.63-.35,1.2-.78,1.71-1.27,1.71,1.09,3.13,2.62,4.12,4.46h0ZM14.08,2.3c1.71.09,3.32.56,4.76,1.35-1.24,1.16-2.91,1.9-4.76,2.02,0,0,0-3.37,0-3.37Zm0,4.08c.99-.06,1.94-.28,2.82-.64,1.28.56,2.5,1.53,3.41,2.75h-6.22v-2.12h0Zm-.84-4.08v3.39c-1.92-.09-3.66-.86-4.93-2.08,1.49-.8,3.17-1.26,4.93-1.31Zm0,4.1v2.11h-6.34c.92-1.21,2.13-2.18,3.41-2.75.9.38,1.89.6,2.93.64Zm-5.58-2.41c.52.51,1.12.96,1.77,1.33-1.31.71-2.52,1.83-3.43,3.19h-2.55c1.01-1.86,2.47-3.43,4.21-4.52ZM1.93,13.65c.12-1.53.5-2.99,1.09-4.32h2.47c-.64,1.2-1.03,2.56-1.03,3.96v.36H1.93Zm3.27,0v-.36c0-1.41.43-2.77,1.14-3.96h14.54c.7,1.18,1.14,2.54,1.14,3.96v.06h0v.84h6.26v.36c0,1.41-.43,2.77-1.14,3.96h-14.54c-.7-1.18-1.13-2.54-1.13-3.96v-.06h0v-.84h-6.27Zm3.17.84h2.34v.06c0,1.4.39,2.75,1.03,3.96h-2.31c-.55-1.24-.92-2.59-1.06-4.02Zm1.48,4.86h2.41c.9,1.35,2.12,2.47,3.43,3.19-.63.35-1.2.78-1.71,1.27-1.71-1.09-3.13-2.62-4.12-4.46h0Zm9.53,6.2c-1.71-.09-3.32-.56-4.76-1.35,1.24-1.16,2.91-1.9,4.76-2.02,0,0,0,3.37,0,3.37Zm0-4.08c-.99.06-1.94.28-2.82.64-1.28-.56-2.49-1.53-3.41-2.75h6.22v2.12h0Z"/><path class="cls-1" d="m140.25,13.39h-3.77v9.93h3.79c3.15,0,5.34-2.01,5.34-5.08,0-2.8-2.04-4.86-5.36-4.86h0Zm-.06,8.65h-2.28v-7.38h2.09c2.82,0,4.15,1.49,4.15,3.63,0,2.36-1.44,3.76-3.94,3.76h0Z"/><rect class="cls-1" x="147.45" y="13.39" width="1.43" height="9.93"/><path class="cls-1" d="m152.88,18.61c1.96,1.15,2.16,1.6,2.16,2.27,0,.77-.63,1.31-1.46,1.31-1.03,0-1.98-.53-2.68-1.46v1.81c.79.58,1.7.91,2.68.91,1.73,0,2.88-1.14,2.88-2.59,0-1.35-.45-2.05-2.54-3.26-1.51-.87-1.63-1.36-1.63-1.9,0-.69.55-1.16,1.46-1.16s1.66.38,2.33,1.04v-1.62c-.69-.45-1.48-.7-2.28-.7-1.7,0-2.92,1.06-2.92,2.48,0,1.22.55,2.01,2.02,2.87h0Z"/><path class="cls-1" d="m158.3,13.39v9.93h1.43v-4.31h1.37c2.15,0,3.47-.86,3.47-2.82,0-1.75-1.21-2.81-3.23-2.81h-3.03Zm4.79,2.79c0,.94-.39,1.58-2.05,1.58h-1.31v-3.12h1.31c1.58,0,2.05.6,2.05,1.53Z"/><polygon class="cls-1" points="171.86 22.02 167.39 22.02 167.39 13.39 165.94 13.39 165.94 23.33 171.86 23.33 171.86 22.02"/><path class="cls-1" d="m179.5,20.39l1.32,2.92h1.46l-4.44-9.99h-1l-4.27,9.99h1.46l1.25-2.92h4.22Zm-2.17-5.13l1.62,3.85h-3.14s1.51-3.85,1.51-3.85Z"/><path class="cls-1" d="m182.44,18.37c0,2.33,1.69,5.08,5.34,5.08,1.25,0,2.45-.24,3.61-.87v-1.56c-1.08.72-2.26,1.11-3.55,1.11-2.48,0-3.91-1.8-3.91-3.75s1.5-3.81,3.93-3.81c1.21,0,2.37.4,3.44.99v-1.5c-1.19-.54-2.38-.82-3.48-.82-2.95,0-5.38,2.19-5.38,5.11v.02Z"/><polygon class="cls-1" points="198.92 14.65 198.92 13.39 193.29 13.39 193.29 23.33 199.06 23.33 199.06 22.04 194.72 22.04 194.72 18.96 198.78 18.96 198.78 17.68 194.72 17.68 194.72 14.65 198.92 14.65"/><polygon class="cls-1" points="205.53 17.47 202.22 13.39 200.88 13.39 200.88 23.33 202.31 23.33 202.31 15.59 205.4 19.43 205.66 19.43 208.72 15.59 208.72 23.33 210.15 23.33 210.15 13.39 208.83 13.39 205.53 17.47"/><polygon class="cls-1" points="218.27 22.04 213.92 22.04 213.92 18.96 217.98 18.96 217.98 17.68 213.92 17.68 213.92 14.65 218.13 14.65 218.13 13.39 212.5 13.39 212.5 23.33 218.27 23.33 218.27 22.04"/><polygon class="cls-1" points="227.93 21.09 221.27 13.39 220.09 13.39 220.09 23.33 221.46 23.33 221.46 15.67 228.05 23.33 229.3 23.33 229.3 13.39 227.93 13.39 227.93 21.09"/><polygon class="cls-1" points="234.02 23.33 235.44 23.33 235.44 14.64 238.91 14.64 238.91 13.39 230.61 13.39 230.61 14.64 234.02 14.64 234.02 23.33"/><polygon class="cls-1" points="135.62 30.18 139.03 30.18 139.03 38.86 140.46 38.86 140.46 30.18 143.93 30.18 143.93 28.93 135.62 28.93 135.62 30.18"/><path class="cls-1" d="m149.33,34.14c1.09-.44,1.66-1.29,1.66-2.45,0-1.46-1.03-2.77-3.01-2.77h-2.74v9.93h1.43v-4.33h.64c.7,0,1.32.31,2.33,1.88l1.57,2.45h1.69l-1.75-2.65c-.96-1.46-1.23-1.69-1.83-2.07h0Zm-1.75-.86h-.92v-3.1h1.21c1.08,0,1.66.55,1.66,1.51,0,1.33-.91,1.58-1.95,1.58h0Z"/><path class="cls-1" d="m157.8,28.87l-4.27,9.99h1.46l1.25-2.92h4.22l1.33,2.92h1.46l-4.44-9.99h-1.01Zm-1.02,5.79l1.51-3.85,1.62,3.85h-3.14Z"/><path class="cls-1" d="m164.9,33.92c0-1.95,1.5-3.81,3.93-3.81,1.2,0,2.37.4,3.44.99v-1.5c-1.19-.54-2.37-.82-3.48-.82-2.95,0-5.38,2.19-5.38,5.11,0,2.33,1.69,5.08,5.34,5.08,1.25,0,2.45-.24,3.61-.87v-1.56c-1.08.72-2.25,1.11-3.55,1.11-2.48,0-3.91-1.8-3.91-3.75v.02Z"/><polygon class="cls-1" points="181.66 28.93 179.89 28.93 175.7 33.47 175.7 28.93 174.26 28.93 174.26 38.86 175.7 38.86 175.7 33.95 180.77 38.86 182.72 38.86 177.35 33.63 181.66 28.93"/><rect class="cls-1" x="183.91" y="28.93" width="1.43" height="9.93"/><polygon class="cls-1" points="195.48 36.63 188.83 28.93 187.65 28.93 187.65 38.86 189.02 38.86 189.02 31.21 195.62 38.86 196.85 38.86 196.85 28.93 195.48 28.93 195.48 36.63"/><path class="cls-1" d="m204.43,35.23h1.9v2.07c-1.09.35-1.49.44-2.24.44-2.28,0-3.91-1.64-3.91-3.85s1.72-3.83,3.86-3.83c1.13,0,2.39.37,3.53,1.03v-1.46c-1.47-.64-2.36-.84-3.5-.84-3.24,0-5.38,2.4-5.38,5.19,0,2.34,1.66,5.01,5.43,5.01,1.24,0,2.41-.24,3.64-.82v-4.2h-3.33v1.25h0Z"/><polygon class="cls-1" points="218.54 33.01 215.23 28.93 213.89 28.93 213.89 38.86 215.31 38.86 215.31 31.12 218.4 34.97 218.66 34.97 221.72 31.12 221.72 38.86 223.15 38.86 223.15 28.93 221.82 28.93 218.54 33.01"/><path class="cls-1" d="m228.61,28.87l-4.26,9.99h1.46l1.25-2.92h4.22l1.33,2.92h1.46l-4.45-9.99h-1.01Zm-1.02,5.79l1.51-3.85,1.61,3.85h-3.13Z"/><polygon class="cls-1" points="233.09 30.18 236.5 30.18 236.5 38.86 237.93 38.86 237.93 30.18 241.4 30.18 241.4 28.93 233.09 28.93 233.09 30.18"/><path class="cls-1" d="m246.8,34.14c1.09-.44,1.66-1.29,1.66-2.45,0-1.46-1.04-2.77-3.01-2.77h-2.74v9.93h1.43v-4.33h.64c.7,0,1.33.31,2.33,1.88l1.57,2.45h1.69l-1.75-2.65c-.96-1.46-1.24-1.69-1.83-2.07h0Zm-1.75-.86h-.92v-3.1h1.21c1.08,0,1.66.55,1.66,1.51,0,1.33-.92,1.58-1.95,1.58h0Z"/><rect class="cls-1" x="251.54" y="28.93" width="1.43" height="9.93"/><path class="cls-1" d="m260.16,33.72l3.96-4.79h-1.72l-3.1,3.79-3.12-3.79h-1.74l3.97,4.79-4.28,5.14h1.73c1.51-1.81,2.65-3.18,3.43-4.11l3.38,4.11h1.72l-4.24-5.14h0Z"/><path class="cls-1" d="m138.87,7.85c.66,0,1.28-.14,1.94-.44v-2.23h-1.78v.67h1.02v1.11c-.58.18-.8.23-1.19.23-1.22,0-2.09-.87-2.09-2.05s.91-2.04,2.06-2.04c.6,0,1.27.19,1.88.55v-.78c-.79-.34-1.26-.45-1.86-.45-1.73,0-2.86,1.28-2.86,2.77,0,1.25.88,2.67,2.89,2.67v-.02Z"/><polygon class="cls-1" points="145.28 7.09 142.9 7.09 142.9 2.49 142.13 2.49 142.13 7.78 145.28 7.78 145.28 7.09"/><path class="cls-1" d="m148.41,7.85c1.85,0,2.89-1.31,2.89-2.73,0-1.51-1.18-2.71-2.86-2.71-1.85,0-2.84,1.35-2.84,2.73,0,1.46,1.12,2.7,2.8,2.7h0Zm.06-4.71c1.36,0,2.05,1.09,2.05,1.99,0,1.35-.97,2.02-2.1,2.02s-2.03-.82-2.03-1.99.76-2.02,2.07-2.02h0Z"/><path class="cls-1" d="m156.06,6.33c0-.66-.49-1.21-1.26-1.36.52-.21.81-.59.81-1.12,0-.8-.56-1.38-1.64-1.38h-1.53v5.29h1.69c.94,0,1.93-.39,1.93-1.45h0Zm-2.87-3.18h.65c.69,0,.98.23.98.77,0,.44-.29.84-1.1.84h-.53v-1.61h0Zm0,3.96v-1.69h.77c.96,0,1.32.33,1.32.84,0,.58-.41.84-1.29.84h-.8,0Z"/><path class="cls-1" d="m157.84,6.22h2.25l.71,1.56h.78l-2.37-5.33h-.53l-2.27,5.33h.78l.67-1.56h0Zm1.1-2.73l.86,2.05h-1.67l.81-2.05Z"/><polygon class="cls-1" points="165.5 7.09 163.12 7.09 163.12 2.49 162.35 2.49 162.35 7.78 165.5 7.78 165.5 7.09"/><path class="cls-1" d="m170.33,2.49h-2.01v5.29h2.02c1.68,0,2.85-1.07,2.85-2.71,0-1.5-1.09-2.58-2.86-2.58h0Zm-.03,4.61h-1.22v-3.93h1.11c1.5,0,2.21.8,2.21,1.93,0,1.26-.77,2-2.11,2h0Z"/><path class="cls-1" d="m174.92,6.22h2.25l.71,1.56h.78l-2.37-5.33h-.53l-2.27,5.33h.78l.67-1.56h0Zm1.1-2.73l.86,2.05h-1.67l.81-2.05Z"/><polygon class="cls-1" points="180.14 7.78 180.9 7.78 180.9 3.16 182.75 3.16 182.75 2.49 178.32 2.49 178.32 3.16 180.14 3.16 180.14 7.78"/><path class="cls-1" d="m183.19,7.78l.67-1.56h2.25l.71,1.56h.78l-2.37-5.33h-.53l-2.27,5.33h.78,0Zm1.76-4.29l.86,2.05h-1.67l.81-2.05Z"/><rect class="cls-1" x="190.34" y="2.49" width=".76" height="5.29"/><polygon class="cls-1" points="193.2 3.7 196.72 7.78 197.38 7.78 197.38 2.49 196.65 2.49 196.65 6.59 193.09 2.49 192.46 2.49 192.46 7.78 193.2 7.78 193.2 3.7"/><path class="cls-1" d="m199.65,5.26c1.05.61,1.15.85,1.15,1.21,0,.41-.33.7-.78.7-.55,0-1.06-.29-1.43-.78v.96c.42.31.91.49,1.43.49.92,0,1.53-.6,1.53-1.38,0-.72-.24-1.1-1.36-1.74-.81-.47-.87-.72-.87-1.02,0-.37.29-.61.78-.61s.88.2,1.24.55v-.86c-.37-.24-.79-.37-1.21-.37-.91,0-1.56.56-1.56,1.32,0,.65.29,1.07,1.08,1.53h0Z"/><polygon class="cls-1" points="203.98 7.78 204.74 7.78 204.74 3.16 206.59 3.16 206.59 2.49 202.16 2.49 202.16 3.16 203.98 3.16 203.98 7.78"/><rect class="cls-1" x="207.43" y="2.49" width=".76" height="5.29"/><polygon class="cls-1" points="213.44 2.49 209.01 2.49 209.01 3.16 210.83 3.16 210.83 7.78 211.59 7.78 211.59 3.16 213.44 3.16 213.44 2.49"/><path class="cls-1" d="m216.53,7.85c1.53,0,2.26-.86,2.26-2.31v-3.06h-.76v3.06c0,1.16-.5,1.63-1.51,1.63s-1.52-.45-1.52-1.62v-3.07h-.76v3.07c0,1.56.82,2.3,2.28,2.3Z"/><polygon class="cls-1" points="221.41 7.78 222.17 7.78 222.17 3.16 224.02 3.16 224.02 2.49 219.6 2.49 219.6 3.16 221.41 3.16 221.41 7.78"/><polygon class="cls-1" points="227.94 7.1 225.62 7.1 225.62 5.45 227.78 5.45 227.78 4.78 225.62 4.78 225.62 3.16 227.86 3.16 227.86 2.49 224.86 2.49 224.86 7.78 227.94 7.78 227.94 7.1"/></svg>