<?xml version="1.0" encoding="UTF-8"?>
<svg id="Layer_1" xmlns="http://www.w3.org/2000/svg" version="1.1" viewBox="0 0 48 35.6">
  <!-- Generator: Adobe Illustrator 29.3.1, SVG Export Plug-In . SVG Version: 2.1.0 Build 151)  -->
  <defs>
    <style>
      .st0 {
        fill: #0033a0;
      }
    </style>
  </defs>
  <g id="Layer_2">
    <g id="Icons">
      <path class="st0" d="M46.7,10.7l-6.2-4.9,1.3-1.3c1-1,1-2.7,0-3.7-1-1-2.7-1-3.7,0l-2.1,2.1-.4-.4c-1-1-2.7-1-3.7,0-1,1-1,2.7,0,3.7,0,0,0,0,0,0l.4.4-1,1H5.5c-3,0-5.5,2.5-5.5,5.5v9.1c0,1.1.9,2,2,2s2-.9,2-2v-9.1c0-.8.7-1.5,1.5-1.5h.5v21c0,1.7,1.3,3,3,3s3-1.3,3-3v-6h1.8c4.1,4.8,11.4,5.4,16.2,1.2.4-.4.9-.8,1.2-1.2h1.8v6c0,1.7,1.3,3,3,3s3-1.3,3-3v-16h5.7c1.8,0,3.3-1.5,3.3-3.3,0-1-.5-2-1.3-2.6Z"/>
    </g>
  </g>
</svg>