<?xml version="1.0" encoding="UTF-8"?>
<svg id="Layer_1" xmlns="http://www.w3.org/2000/svg" version="1.1" viewBox="0 0 48 30">
  <!-- Generator: Adobe Illustrator 29.3.1, SVG Export Plug-In . SVG Version: 2.1.0 Build 151)  -->
  <defs>
    <style>
      .st0 {
        fill: #0033a0;
      }
    </style>
  </defs>
  <g id="Layer_2">
    <g id="Icons">
      <path class="st0" d="M47,0H6c-.6,0-1,.4-1,1v6h16c1.9-3,6-3.9,9-2,.8.5,1.5,1.2,2,2h10c1.7,0,3,1.3,3,3v11h2c.6,0,1-.4,1-1V1C48,.4,47.6,0,47,0Z"/>
      <path class="st0" d="M42,9H1c-.6,0-1,.4-1,1v19c0,.6.4,1,1,1h41c.6,0,1-.4,1-1V10c0-.6-.4-1-1-1ZM6,23c-1.7,0-3-1.3-3-3,0-1.3.8-2.4,2-2.8.3-.1.7-.2,1-.2,1.7,0,3,1.3,3,3,0,0,0,0,0,0,0,.3,0,.7-.2,1-.4,1.2-1.5,2-2.8,2ZM21.5,26c-3,0-5.6-2.1-6.3-5-.1-.5-.2-1-.2-1.5,0-3.2,2.4-5.9,5.5-6.4.3,0,.6,0,1,0,3.6,0,6.5,2.9,6.5,6.5,0,0,0,0,0,0,0,.5,0,1-.2,1.5-.7,2.9-3.3,5-6.3,5ZM37,22.5c-1.7,0-3-1.3-3-3,0-1.7,1.3-3,3-3,1.7,0,3,1.3,3,3,0,.5-.1,1-.4,1.5-.5.9-1.5,1.5-2.6,1.5Z"/>
    </g>
  </g>
</svg>