<?xml version="1.0" encoding="UTF-8"?>
<svg id="Layer_1" xmlns="http://www.w3.org/2000/svg" version="1.1" viewBox="0 0 48 48">
  <!-- Generator: Adobe Illustrator 29.3.1, SVG Export Plug-In . SVG Version: 2.1.0 Build 151)  -->
  <defs>
    <style>
      .st0 {
        fill: #0033a0;
      }
    </style>
  </defs>
  <g id="Layer_2">
    <g id="Icons">
      <path class="st0" d="M46.9,16h-1.9v-2.9c0-.6-.5-1.1-1-1.1,0,0,0,0,0,0h-1.9V1.5C42,.7,41.3,0,40.5,0s-1.5.7-1.5,1.5v10.5h-1.9c-.6,0-1.1.5-1.1,1,0,0,0,0,0,0v2.9h-1.9c-.6,0-1.1.5-1.1,1.1v27.9h-4V3c0-.6-.4-1-1-1h-12c-.6,0-1,.4-1,1v42h-7v-6.2c2.9-.8,4.6-3.9,3.8-6.8-.8-2.9-3.9-4.6-6.8-3.8-2.9.8-4.6,3.9-3.8,6.8.5,1.8,2,3.3,3.8,3.8v6.2H0v3h48v-30.9c0-.6-.5-1.1-1.1-1.1ZM42,31.5c0-.3.2-.5.5-.5,0,0,0,0,0,0h2c.3,0,.5.2.5.5,0,0,0,0,0,0v2c0,.3-.2.5-.5.5,0,0,0,0,0,0h-2c-.3,0-.5-.2-.5-.5,0,0,0,0,0,0v-2ZM44.5,28h-2c-.3,0-.5-.2-.5-.5,0,0,0,0,0,0v-2c0-.3.2-.5.5-.5,0,0,0,0,0,0h2c.3,0,.5.2.5.5,0,0,0,0,0,0v2c0,.3-.2.5-.5.5,0,0,0,0,0,0ZM44.5,22h-2c-.3,0-.5-.2-.5-.5,0,0,0,0,0,0v-2c0-.3.2-.5.5-.5,0,0,0,0,0,0h2c.3,0,.5.2.5.5,0,0,0,0,0,0v2c0,.3-.2.5-.5.5,0,0,0,0,0,0ZM36,19.5c0-.3.2-.5.5-.5,0,0,0,0,0,0h2c.3,0,.5.2.5.5,0,0,0,0,0,0v2c0,.3-.2.5-.5.5,0,0,0,0,0,0h-2c-.3,0-.5-.2-.5-.5,0,0,0,0,0,0v-2ZM36,25.5c0-.3.2-.5.5-.5,0,0,0,0,0,0h2c.3,0,.5.2.5.5,0,0,0,0,0,0v2c0,.3-.2.5-.5.5,0,0,0,0,0,0h-2c-.3,0-.5-.2-.5-.5,0,0,0,0,0,0v-2ZM36,31.5c0-.3.2-.5.5-.5,0,0,0,0,0,0h2c.3,0,.5.2.5.5,0,0,0,0,0,0v2c0,.3-.2.5-.5.5,0,0,0,0,0,0h-2c-.3,0-.5-.2-.5-.5,0,0,0,0,0,0v-2ZM19,8c0-.6.4-1,1-1h4c.6,0,1,.4,1,1v1c0,.6-.4,1-1,1h-4c-.6,0-1-.4-1-1v-1ZM19,16c0-.6.4-1,1-1h4c.6,0,1,.4,1,1v1c0,.6-.4,1-1,1h-4c-.6,0-1-.4-1-1v-1ZM19,24c0-.6.4-1,1-1h4c.6,0,1,.4,1,1v1c0,.6-.4,1-1,1h-4c-.6,0-1-.4-1-1v-1ZM19,45v-5c0-.6.4-1,1-1h4c.6,0,1,.4,1,1v5h-6ZM42,45v-5c0-.6.4-1,1-1h1c.6,0,1,.4,1,1v5h-3Z"/>
    </g>
  </g>
</svg>