<?xml version="1.0" encoding="UTF-8"?>
<svg id="Layer_1" xmlns="http://www.w3.org/2000/svg" version="1.1" viewBox="0 0 42 48">
  <!-- Generator: Adobe Illustrator 29.3.1, SVG Export Plug-In . SVG Version: 2.1.0 Build 151)  -->
  <defs>
    <style>
      .st0 {
        fill: #0033a0;
      }
    </style>
  </defs>
  <g id="Layer_2">
    <g id="Icons">
      <path class="st0" d="M5,21h1v-3c0-2.8-2.2-5-5-5H0v3c0,2.8,2.2,5,5,5Z"/>
      <path class="st0" d="M5,30h1v-3c0-2.8-2.2-5-5-5H0v3c0,2.8,2.2,5,5,5Z"/>
      <path class="st0" d="M6,36c0-2.8-2.2-5-5-5H0v3c0,2.8,2.2,5,5,5h1v-3Z"/>
      <path class="st0" d="M9,18v3h1c2.8,0,5-2.2,5-5v-3h-1c-2.8,0-5,2.2-5,5Z"/>
      <path class="st0" d="M9,27v3h1c2.8,0,5-2.2,5-5v-3h-1c-2.8,0-5,2.2-5,5Z"/>
      <path class="st0" d="M9,36v3h1c2.8,0,5-2.2,5-5v-3h-1c-2.8,0-5,2.2-5,5h0Z"/>
      <path class="st0" d="M6,46.5c0,.8.7,1.5,1.5,1.5s1.5-.7,1.5-1.5v-5.5h-3v5.5Z"/>
      <path class="st0" d="M1.5,11c.8,0,1.5-.7,1.5-1.5v-4c0-.8-.7-1.5-1.5-1.5s-1.5.7-1.5,1.5v4c0,.8.7,1.5,1.5,1.5Z"/>
      <path class="st0" d="M13.5,4c-.8,0-1.5.7-1.5,1.5v4c0,.8.7,1.5,1.5,1.5s1.5-.7,1.5-1.5v-4c0-.8-.7-1.5-1.5-1.5Z"/>
      <path class="st0" d="M7.5,14c.8,0,1.5-.7,1.5-1.5V1.5C9,.7,8.3,0,7.5,0s-1.5.7-1.5,1.5v11c0,.8.7,1.5,1.5,1.5Z"/>
      <path class="st0" d="M28.3,21.2l1,.3.8-2.9c.7-2.7-.9-5.4-3.5-6.1l-1-.3-.8,2.9c-.7,2.7.9,5.4,3.5,6.1,0,0,0,0,0,0Z"/>
      <path class="st0" d="M25.9,29.9l1,.3.8-2.9c.7-2.7-.9-5.4-3.5-6.1,0,0,0,0,0,0l-1-.3-.8,2.9c-.7,2.7.9,5.4,3.5,6.1,0,0,0,0,0,0Z"/>
      <path class="st0" d="M24.6,38.9l.8-2.9c.7-2.7-.9-5.4-3.5-6.1h0s-1-.3-1-.3l-.8,2.9c-.7,2.7.9,5.4,3.5,6.1,0,0,0,0,0,0l1,.3Z"/>
      <path class="st0" d="M32.9,19.4l-.8,2.9,1,.3c2.7.7,5.4-.9,6.1-3.5l.8-2.9-1-.3c-2.7-.7-5.4.9-6.1,3.5,0,0,0,0,0,0Z"/>
      <path class="st0" d="M30.6,28.1l-.8,2.9,1,.3c2.7.7,5.4-.9,6.1-3.5l.8-2.9-1-.3c-2.7-.7-5.4.9-6.1,3.5,0,0,0,0,0,0Z"/>
      <path class="st0" d="M28.3,36.7l-.8,2.9,1,.3c2.7.7,5.4-.9,6.1-3.5,0,0,0,0,0,0l.8-2.9-1-.3c-2.7-.7-5.4.9-6.1,3.5Z"/>
      <path class="st0" d="M22.6,46.1c-.2.8.3,1.6,1.1,1.8.8.2,1.6-.3,1.8-1.1l1.4-5.3-2.9-.8-1.4,5.3Z"/>
      <path class="st0" d="M27.5,10.7c.8.2,1.6-.3,1.8-1.1,0,0,0,0,0,0l1-3.9c.2-.8-.3-1.6-1.1-1.8s-1.6.3-1.8,1.1c0,0,0,0,0,0l-1,3.9c-.2.8.3,1.6,1.1,1.8Z"/>
      <path class="st0" d="M40.9,7c-.8-.2-1.6.3-1.8,1.1l-1,3.9c-.2.8.3,1.6,1.1,1.8.8.2,1.6-.3,1.8-1.1l1-3.9c.2-.8-.3-1.6-1.1-1.8,0,0,0,0,0,0Z"/>
      <path class="st0" d="M32.5,15.1c.8.2,1.6-.3,1.8-1.1,0,0,0,0,0,0l2.8-10.6c.2-.8-.3-1.6-1.1-1.8-.8-.2-1.6.3-1.8,1.1,0,0,0,0,0,0l-2.8,10.6c-.2.8.3,1.6,1.1,1.8Z"/>
    </g>
  </g>
</svg>