<?xml version="1.0" encoding="UTF-8"?>
<svg id="Layer_1" xmlns="http://www.w3.org/2000/svg" version="1.1" viewBox="0 0 48 48">
  <!-- Generator: Adobe Illustrator 29.3.1, SVG Export Plug-In . SVG Version: 2.1.0 Build 151)  -->
  <defs>
    <style>
      .st0 {
        fill: #0033a0;
      }
    </style>
  </defs>
  <g id="Layer_2">
    <g id="Icons">
      <path class="st0" d="M46.5,45H1.5c-.8,0-1.5.7-1.5,1.5s.7,1.5,1.5,1.5h45c.8,0,1.5-.7,1.5-1.5s-.7-1.5-1.5-1.5Z"/>
      <path class="st0" d="M20,33c0-1.1.9-2,2-2h4c1.1,0,2,.9,2,2v10h16v-25c0-.6-.4-1-1-1h-10l-7-5.2v-3.8h9V2h-9C26,.9,25.1,0,24,0s-2,.9-2,2v9.8l-7,5.2H5c-.6,0-1,.4-1,1v25h16v-10ZM35,22c0-.6.4-1,1-1h2c.6,0,1,.4,1,1v5c0,.6-.4,1-1,1h-2c-.6,0-1-.4-1-1v-5ZM35,33c0-.6.4-1,1-1h2c.6,0,1,.4,1,1v5c0,.6-.4,1-1,1h-2c-.6,0-1-.4-1-1v-5ZM13,38c0,.6-.4,1-1,1h-2c-.6,0-1-.4-1-1v-5c0-.6.4-1,1-1h2c.6,0,1,.4,1,1v5ZM13,27c0,.6-.4,1-1,1h-2c-.6,0-1-.4-1-1v-5c0-.6.4-1,1-1h2c.6,0,1,.4,1,1v5ZM28,21c0,2.2-1.8,4-4,4s-4-1.8-4-4,1.8-4,4-4c2.2,0,4,1.8,4,4h0Z"/>
    </g>
  </g>
</svg>