<?xml version="1.0" encoding="UTF-8"?>
<svg id="Layer_1" xmlns="http://www.w3.org/2000/svg" version="1.1" viewBox="0 0 26 48">
  <!-- Generator: Adobe Illustrator 29.3.1, SVG Export Plug-In . SVG Version: 2.1.0 Build 151)  -->
  <defs>
    <style>
      .st0 {
        fill: #0033a0;
      }
    </style>
  </defs>
  <g id="Layer_2">
    <g id="Icons">
      <path class="st0" d="M13,10C5.5,10,0,15.1,0,22s.9,2,2,2,2-.9,2-2c0-3.2,2-6,5-7l-4,19c0,.5.3,1,.8,1,0,0,.1,0,.2,0h2v11c0,1.1.9,2,2,2s2-.9,2-2v-11h2v11c0,1.1.9,2,2,2s2-.9,2-2v-11h2c.5,0,1-.3,1-.8,0,0,0-.1,0-.2l-4-19c3,1.1,5,3.9,5,7,0,1.1.9,2,2,2s2-.9,2-2c0-6.9-5.5-12-13-12Z"/>
      <circle class="st0" cx="13" cy="4" r="4"/>
    </g>
  </g>
</svg>